# xmcd CD database file
#
# Track frame offsets:
#	150
#	28397
#	49390
#	81135
#	97437
#	126300
#	142432
#	157105
#	184775
#	208205
#
# Disc length: 3165 seconds
#
# Revision: 0
# Processed by: cddbd v1.5PL3 Copyright (c) Steve Scherf et al.
# Submitted via: CDex 1.50beta10
#
DISCID=a80c5b0a
DTITLE=Wadada Leo Smith - Red Sulphur Sky 
DYEAR=2001
DGENRE=Jazz
TTITLE0=Red Sulphur Sky 
TTITLE1=Evening Glow a Shining Forward  
TTITLE2=The Medicine Wheel  North: Wisdom: Buffalo: White 
TTITLE3=The Medicine Wheel West: Introspective: Bear: Black 
TTITLE4=The Medicine Wheel East: Illumination: Eagle: Yellow 
TTITLE5=The Medicine Wheel South: Innocence: Mouse: Green 
TTITLE6=A Fmie: Purity And Poverty  A Spiritual Walk on the Tenri Path 
TTITLE7=A Fmie: Purity And Poverty  Ishmael and Hagar - In a Luminous Caravan of Pure Blues 
TTITLE8=A Fmie: Purity And Poverty  Unity and Diversity In the Secret Garden of Life 
TTITLE9=A Fmie: Purity And Poverty  Saint Tekla Haymanot at Debra Libanos Ethiopia 
EXTD=YEAR: 2001
EXTT0=
EXTT1=
EXTT2=
EXTT3=
EXTT4=
EXTT5=
EXTT6=
EXTT7=
EXTT8=
EXTT9=
PLAYORDER=
